# xmcd
#
# Track frame offsets: 
#        150
#        14577
#        30255
#        51247
#        64090
#        79932
#        97230
#        114492
#        131857
#        151245
#
# Disc length: 2243 seconds
#
# Revision: 2
# Processed by: cddbd v1.5PL3 Copyright (c) Steve Scherf et al.
# Submitted via: ExactAudioCopy v0.95a3
#
DISCID=8308c10a
DTITLE=Helen Darling - Helen Darling
DYEAR=1995
DGENRE=Country
TTITLE0=Jenny Come Back
TTITLE1=I Haven't Found It Yet
TTITLE2=Into The Storm
TTITLE3=I Love Him, I Think
TTITLE4=When The Butterflies Have Flown Away
TTITLE5=Black And White And Blue
TTITLE6=With Every Twist And Turn
TTITLE7=That's How You Know It's Love
TTITLE8=Next To Love
TTITLE9=Even God Must Get The Blues
EXTD=
EXTT0=
EXTT1=
EXTT2=
EXTT3=
EXTT4=
EXTT5=
EXTT6=
EXTT7=
EXTT8=
EXTT9=
PLAYORDER=
